<svg class="svg-icon" style="width: 1em;height: 1em;vertical-align: middle;fill: currentColor;overflow: hidden;" viewBox="0 0 1024 1024" version="1.1" xmlns="http://www.w3.org/2000/svg"><path d="M523.4 415.2c-88.2 0-159.9-71.7-159.9-159.9s71.7-160 159.9-160S683.3 167 683.3 255.2s-71.7 160-159.9 160z m0-250.3c-49.8 0-90.4 40.5-90.4 90.4s40.5 90.4 90.4 90.4 90.4-40.5 90.4-90.4-40.6-90.4-90.4-90.4zM239.8 674.5c-72.8 0-132-59.2-132-132s59.2-132 132-132 132 59.2 132 132-59.2 132-132 132z m0-194.5c-34.5 0-62.5 28-62.5 62.5 0 34.4 28 62.5 62.5 62.5 34.4 0 62.5-28 62.5-62.5s-28-62.5-62.5-62.5zM786.2 674.5c-72.8 0-132-59.2-132-132s59.2-132 132-132 132 59.2 132 132-59.2 132-132 132z m0-194.5c-34.4 0-62.5 28-62.5 62.5 0 34.4 28 62.5 62.5 62.5s62.5-28 62.5-62.5-28-62.5-62.5-62.5z"  /><path d="M523.4 586.6c-19.2 0-34.8-15.6-34.8-34.8V380.4c0-19.2 15.6-34.8 34.8-34.8s34.8 15.6 34.8 34.8v171.4c0 19.2-15.6 34.8-34.8 34.8z"  /><path d="M689 603.2H337c-19.2 0-34.8-15.6-34.8-34.8s15.6-34.8 34.8-34.8h352c19.2 0 34.8 15.6 34.8 34.8s-15.6 34.8-34.8 34.8zM79.6 928.3c-4.1 0-8.4-0.7-12.4-2.3-17.9-6.9-26.9-27-20-44.9l97.2-253.8c6.9-17.9 27-26.9 44.9-20 17.9 6.9 26.9 27 20 44.9L112.1 906c-5.3 13.8-18.5 22.3-32.5 22.3zM399.9 928.3c-14 0-27.2-8.5-32.5-22.3l-97.2-253.8c-6.9-17.9 2.1-38.1 20-44.9 17.9-6.9 38 2.1 44.9 20l97.2 253.8c6.9 17.9-2.1 38.1-20 44.9-4 1.5-8.3 2.3-12.4 2.3zM626.1 928.3c-4.1 0-8.4-0.7-12.4-2.3-17.9-6.9-26.9-27-20-44.9l97.2-253.8c6.9-17.9 27-26.9 44.9-20 17.9 6.9 26.9 27 20 44.9L658.6 906c-5.3 13.8-18.5 22.3-32.5 22.3zM946.4 928.3c-14 0-27.2-8.5-32.5-22.3l-97.2-253.8c-6.9-17.9 2.1-38.1 20-44.9 17.9-6.9 38 2.1 44.9 20l97.2 253.8c6.9 17.9-2.1 38.1-20 44.9-4.1 1.5-8.3 2.3-12.4 2.3z"  /></svg>