<svg class="svg-icon" style="width: 1em; height: 1em;vertical-align: middle;fill: currentColor;overflow: hidden;" viewBox="0 0 1024 1024" version="1.1" xmlns="http://www.w3.org/2000/svg"><path d="M798.7 531.9c-4.4-5.5-9.1-11-13.9-16.5 4.9-5.5 9.6-11.1 14-16.6 23.8-29.8 40.1-58.3 48.4-84.9 12.8-41.2 3.9-70-5.9-86.9-14-24.3-46-53.3-118.8-53.3-22 0-46.5 2.7-72.7 8-2.4-7-4.8-13.9-7.4-20.5-13.9-35.5-30.5-63.9-49.3-84.4-29.3-31.7-58.7-38.4-78.2-38.4s-49 6.7-78.2 38.4c-18.9 20.5-35.5 48.9-49.3 84.4-2.6 6.6-5 13.4-7.4 20.4-26.2-5.3-50.8-8-72.8-8-72.8 0-104.7 29-118.8 53.3-9.8 16.9-18.7 45.7-5.9 86.9 8.3 26.6 24.6 55.2 48.4 84.9 4.5 5.6 9.1 11.1 14.1 16.7-4.9 5.5-9.5 11.1-14 16.6-23.8 29.8-40.1 58.3-48.4 84.9-12.8 41.2-3.9 70 5.9 86.9 14 24.3 46 53.3 118.8 53.3 22 0 46.5-2.7 72.7-8 2.3 7 4.8 13.8 7.4 20.4 13.9 35.5 30.5 63.9 49.3 84.4 29.3 31.7 58.7 38.4 78.2 38.4s49-6.7 78.2-38.4c18.9-20.5 35.5-48.9 49.3-84.4 2.6-6.6 5-13.4 7.4-20.5 26.2 5.3 50.7 8 72.6 8 72.8 0 104.8-29 118.8-53.3 9.8-16.9 18.7-45.7 5.9-86.9-8.3-26.6-24.6-55.1-48.4-84.9z m-76.2-186.3c29.1 0 50.2 6.5 56.4 17.3 7.6 13.1-0.7 46.3-36.4 90.9-2.9 3.6-5.9 7.2-9 10.8-16.9-15-35.2-29.6-54.7-43.9-2.6-24-6.1-47.3-10.6-69.4 19.5-3.8 37.8-5.7 54.3-5.7zM563.3 599.3c-16.1 9.3-32.3 18-48.5 25.9-16.2-8-32.4-16.6-48.6-26-16.1-9.3-31.7-19-46.7-29-1.2-18-1.8-36.4-1.8-55s0.6-37 1.8-54.9c15-10 30.6-19.7 46.7-29s32.4-18 48.5-25.9c16.1 7.9 32.3 16.6 48.4 25.9 16.2 9.3 31.8 19.1 46.8 29.1 1.2 18 1.8 36.3 1.8 54.9 0 18.7-0.6 37.1-1.8 55-14.8 10-30.4 19.7-46.6 29z m-48.5-389c15.2 0 39.8 23.8 60.5 77 1.7 4.3 3.3 8.7 4.9 13.2-21.4 7.2-43.3 15.7-65.3 25.5-22.1-9.8-44-18.3-65.4-25.5 1.6-4.5 3.2-8.9 4.9-13.2 20.6-53.2 45.2-77 60.4-77zM250.6 362.8c6.2-10.8 27.3-17.3 56.4-17.3 16.6 0 34.8 1.9 54.4 5.7-4.5 22.2-8.1 45.5-10.6 69.5-19.5 14.2-37.8 28.9-54.7 43.9-3.1-3.6-6.2-7.2-9.1-10.9-35.7-44.6-44-77.8-36.4-90.9z m56.5 322.3c-29.1 0-50.2-6.5-56.4-17.3-7.6-13.1 0.7-46.3 36.4-90.9 2.9-3.6 5.9-7.2 9-10.8 16.9 14.9 35.2 29.6 54.7 43.8 2.6 24 6.1 47.3 10.6 69.4-19.5 3.9-37.7 5.8-54.3 5.8z m207.7 135.2c-15.2 0-39.8-23.8-60.5-77-1.7-4.3-3.3-8.7-4.8-13.1 21.4-7.2 43.3-15.8 65.4-25.5 22 9.7 43.9 18.3 65.3 25.5-1.6 4.5-3.2 8.9-4.9 13.2-20.7 53.1-45.3 76.9-60.5 76.9z m264.1-152.5c-6.2 10.8-27.3 17.3-56.4 17.3-16.5 0-34.8-1.9-54.2-5.6 4.5-22.1 8-45.4 10.6-69.4 19.5-14.2 37.8-28.9 54.7-43.9 3.1 3.6 6.1 7.1 8.9 10.7 35.6 44.5 44 77.7 36.4 90.9z"  /><path d="M514.8 515.8m-58 0a58 58 0 1 0 116 0 58 58 0 1 0-116 0Z"  /></svg>