<svg class="svg-icon" style="width: 1em;height: 1em;vertical-align: middle;fill: currentColor;overflow: hidden;" viewBox="0 0 1024 1024" version="1.1" xmlns="http://www.w3.org/2000/svg"><path d="M862.5 413.6H635.1c-17.8 0-32.3-14.5-32.3-32.3v-216c0-17.8 14.5-32.3 32.3-32.3h227.4c17.8 0 32.3 14.5 32.3 32.3v216c0 17.8-14.5 32.3-32.3 32.3zM667.4 349h162.7V197.6H667.4V349zM862.5 941.2H635.1c-17.8 0-32.3-14.5-32.3-32.3v-216c0-17.8 14.5-32.3 32.3-32.3h227.4c17.8 0 32.3 14.5 32.3 32.3v216c0 17.9-14.5 32.3-32.3 32.3z m-195.1-64.6h162.7V725.2H667.4v151.4zM507.2 774.4H173.9c-11.6 0-22.2-6.2-28-16.2-5.8-10-5.8-22.3 0-32.3l62.5-108.3h-69.2c-11.6 0-22.2-6.2-28-16.2-5.8-10-5.8-22.3 0-32.3l76.2-131.9h-13.5c-11.6 0-22.2-6.2-28-16.2-5.8-10-5.8-22.3 0-32.3l166.6-288.6c11.6-20 44.4-20 56 0l166.6 288.6c5.8 10 5.8 22.3 0 32.3-5.8 10-16.4 16.2-28 16.2h-13.5l76.2 131.9c5.8 10 5.8 22.3 0 32.3-5.8 10-16.4 16.2-28 16.2h-69.2l62.5 108.3c5.8 10 5.8 22.3 0 32.3-5.7 10.1-16.4 16.2-27.9 16.2z m-277.3-64.6h221.3l-62.5-108.3c-5.8-10-5.8-22.3 0-32.3 5.8-10 16.4-16.2 28-16.2h69.2l-76.2-131.9c-5.8-10-5.8-22.3 0-32.3 5.8-10 16.4-16.2 28-16.2h13.5L340.5 181 229.9 372.7h13.5c11.6 0 22.2 6.2 28 16.2 5.8 10 5.8 22.3 0 32.3L195.2 553h69.2c11.6 0 22.2 6.2 28 16.2 5.8 10 5.8 22.3 0 32.3l-62.5 108.3z"  /><path d="M340.5 914.6c-17.8 0-32.3-14.5-32.3-32.3V742.1c0-17.8 14.5-32.3 32.3-32.3s32.3 14.5 32.3 32.3v140.2c0.1 17.8-14.4 32.3-32.3 32.3z"  /><path d="M485.3 933.3H171.4c-17.8 0-32.3-14.5-32.3-32.3 0-17.8 14.5-32.3 32.3-32.3h313.9c17.8 0 32.3 14.5 32.3 32.3 0 17.9-14.5 32.3-32.3 32.3zM862.5 562.8H622c-17.8 0-32.3-14.5-32.3-32.3 0-17.8 14.5-32.3 32.3-32.3h240.4c17.8 0 32.3 14.5 32.3 32.3 0.1 17.8-14.4 32.3-32.2 32.3z"  /></svg>